<svg width="261" height="80" viewBox="0 0 261 120" fill="none" xmlns="http://www.w3.org/2000/svg">
  <path
    d="M104.024 82V50.71H109.736V64.36H123.05V50.71H128.804V82H123.05V69.4H109.736V82H104.024ZM145.201 82.504C142.849 82.504 140.791 81.972 139.027 80.908C137.263 79.844 135.891 78.402 134.911 76.582C133.931 74.762 133.441 72.746 133.441 70.534C133.441 68.238 133.931 66.208 134.911 64.444C135.919 62.652 137.277 61.238 138.985 60.202C140.721 59.166 142.653 58.648 144.781 58.648C146.573 58.648 148.141 58.942 149.485 59.53C150.857 60.118 152.019 60.93 152.971 61.966C153.923 63.002 154.651 64.192 155.155 65.536C155.659 66.852 155.911 68.28 155.911 69.82C155.911 70.212 155.883 70.618 155.827 71.038C155.799 71.458 155.729 71.822 155.617 72.13H137.977V67.93H152.509L149.905 69.904C150.157 68.616 150.087 67.468 149.695 66.46C149.331 65.452 148.715 64.654 147.847 64.066C147.007 63.478 145.985 63.184 144.781 63.184C143.633 63.184 142.611 63.478 141.715 64.066C140.819 64.626 140.133 65.466 139.657 66.586C139.209 67.678 139.041 69.008 139.153 70.576C139.041 71.976 139.223 73.222 139.699 74.314C140.203 75.378 140.931 76.204 141.883 76.792C142.863 77.38 143.983 77.674 145.243 77.674C146.503 77.674 147.567 77.408 148.435 76.876C149.331 76.344 150.031 75.63 150.535 74.734L154.987 76.918C154.539 78.01 153.839 78.976 152.887 79.816C151.935 80.656 150.801 81.314 149.485 81.79C148.197 82.266 146.769 82.504 145.201 82.504ZM166.93 82.504C165.334 82.504 163.948 82.238 162.772 81.706C161.596 81.174 160.686 80.418 160.042 79.438C159.398 78.43 159.076 77.268 159.076 75.952C159.076 74.692 159.356 73.572 159.916 72.592C160.476 71.584 161.344 70.744 162.52 70.072C163.696 69.4 165.18 68.924 166.972 68.644L174.448 67.426V71.626L168.022 72.718C166.93 72.914 166.118 73.264 165.586 73.768C165.054 74.272 164.788 74.93 164.788 75.742C164.788 76.526 165.082 77.156 165.67 77.632C166.286 78.08 167.042 78.304 167.938 78.304C169.086 78.304 170.094 78.066 170.962 77.59C171.858 77.086 172.544 76.4 173.02 75.532C173.524 74.664 173.776 73.712 173.776 72.676V66.796C173.776 65.816 173.384 65.004 172.6 64.36C171.844 63.688 170.836 63.352 169.576 63.352C168.4 63.352 167.35 63.674 166.426 64.318C165.53 64.934 164.872 65.76 164.452 66.796L159.958 64.612C160.406 63.408 161.106 62.372 162.058 61.504C163.038 60.608 164.186 59.908 165.502 59.404C166.818 58.9 168.246 58.648 169.785 58.648C171.662 58.648 173.314 58.998 174.742 59.698C176.17 60.37 177.276 61.322 178.06 62.554C178.872 63.758 179.278 65.172 179.278 66.796V82H174.07V78.094L175.246 78.01C174.658 78.99 173.958 79.816 173.146 80.488C172.334 81.132 171.41 81.636 170.374 82C169.338 82.336 168.19 82.504 166.93 82.504ZM184.363 82V59.152H189.529V64.234L189.109 63.478C189.641 61.77 190.467 60.58 191.587 59.908C192.735 59.236 194.107 58.9 195.703 58.9H197.047V63.772H195.073C193.505 63.772 192.245 64.262 191.293 65.242C190.341 66.194 189.865 67.538 189.865 69.274V82H184.363ZM213.386 82V75.112H199.022V70.324L213.05 50.71H219.014V70.324H223.592V75.112H219.014V82H213.386ZM203.222 72.382L202.214 70.324H213.386V55.204L214.856 55.666L203.222 72.382ZM240.068 82.504C237.66 82.504 235.518 82 233.642 80.992C231.794 79.984 230.338 78.598 229.274 76.834C228.21 75.07 227.678 73.068 227.678 70.828V50.71H233.39V70.534C233.39 71.822 233.67 72.984 234.23 74.02C234.818 75.056 235.616 75.868 236.624 76.456C237.632 77.016 238.78 77.296 240.068 77.296C241.384 77.296 242.532 77.016 243.512 76.456C244.52 75.868 245.304 75.056 245.864 74.02C246.452 72.984 246.746 71.822 246.746 70.534V50.71H252.458V70.828C252.458 73.068 251.926 75.07 250.862 76.834C249.798 78.598 248.328 79.984 246.452 80.992C244.604 82 242.476 82.504 240.068 82.504Z"
    fill="#7AB2B2" />
  <path d="M0 107.5V0H24V49H48L31.5 71.5H24V107.5H0Z" fill="#4D869C" />
  <path d="M66 120H88.5V15H66V50H54L39 72H66V120Z" fill="#7AB2B2" />
</svg>