<svg width="129" height="129" viewBox="0 0 129 129" fill="none" xmlns="http://www.w3.org/2000/svg">
<path d="M114.905 34.8122C120.417 44.171 123.215 54.8791 122.987 65.738C122.759 76.5969 119.513 87.1781 113.613 96.2972C107.713 105.416 99.3918 112.714 89.5801 117.372C79.7684 122.031 68.8538 123.867 58.0578 122.676M14.0954 94.2459C8.58346 84.8871 5.78487 74.179 6.0129 63.3201C6.24093 52.4612 9.48659 41.8801 15.3866 32.7609C21.2866 23.6417 29.6082 16.3444 39.4199 11.6857C49.2316 7.02698 60.1462 5.1907 70.9422 6.38239" stroke="#0080FF" stroke-width="11" stroke-linecap="round" stroke-linejoin="round"/>
<path d="M95.7505 33.2495C101.503 39.0024 110.831 39.0024 116.583 33.2495C122.336 27.4966 122.336 18.1694 116.583 12.4165C110.831 6.66362 101.503 6.66362 95.7505 12.4165C89.9976 18.1694 89.9976 27.4966 95.7505 33.2495Z" stroke="#F4BB00" stroke-width="11" stroke-linecap="round" stroke-linejoin="round"/>
<path d="M12.4165 116.583C18.1694 122.336 27.4966 122.336 33.2495 116.583C39.0024 110.831 39.0024 101.503 33.2495 95.7505C27.4966 89.9976 18.1694 89.9976 12.4165 95.7505C6.66364 101.503 6.66364 110.831 12.4165 116.583Z" stroke="#F4BB00" stroke-width="11" stroke-linecap="round" stroke-linejoin="round"/>
<path d="M65 37C59.9609 37 55.1282 39.0281 51.565 42.6382C48.0018 46.2483 46 51.1446 46 56.25C46 62.795 49.23 68.5425 54.1429 72.035V78.25C54.1429 78.9793 54.4288 79.6788 54.9379 80.1945C55.4469 80.7103 56.1373 81 56.8571 81H73.1429C73.8627 81 74.5531 80.7103 75.0621 80.1945C75.5712 79.6788 75.8571 78.9793 75.8571 78.25V72.035C80.77 68.5425 84 62.795 84 56.25C84 51.1446 81.9982 46.2483 78.435 42.6382C74.8718 39.0281 70.0391 37 65 37ZM56.8571 89.25C56.8571 89.9793 57.1431 90.6788 57.6521 91.1945C58.1612 91.7103 58.8516 92 59.5714 92H70.4286C71.1484 92 71.8388 91.7103 72.3479 91.1945C72.8569 90.6788 73.1429 89.9793 73.1429 89.25V86.5H56.8571V89.25Z" fill="#F4BB00"/>
</svg>
