<svg width="375" height="129" viewBox="0 0 375 129" fill="none" xmlns="http://www.w3.org/2000/svg">
<path d="M114.905 34.8122C120.417 44.171 123.215 54.8791 122.987 65.738C122.759 76.5969 119.513 87.1781 113.613 96.2972C107.713 105.416 99.3918 112.714 89.5801 117.372C79.7684 122.031 68.8538 123.867 58.0578 122.676M14.0954 94.2459C8.58346 84.8871 5.78487 74.179 6.0129 63.3201C6.24093 52.4612 9.48659 41.8801 15.3866 32.7609C21.2866 23.6417 29.6082 16.3444 39.4199 11.6857C49.2316 7.02698 60.1462 5.1907 70.9422 6.38239" stroke="#0080FF" stroke-width="11" stroke-linecap="round" stroke-linejoin="round"/>
<path d="M95.7505 33.2495C101.503 39.0024 110.831 39.0024 116.583 33.2495C122.336 27.4966 122.336 18.1694 116.583 12.4165C110.831 6.66362 101.503 6.66362 95.7505 12.4165C89.9976 18.1694 89.9976 27.4966 95.7505 33.2495Z" stroke="#F4BB00" stroke-width="11" stroke-linecap="round" stroke-linejoin="round"/>
<path d="M12.4165 116.583C18.1694 122.336 27.4966 122.336 33.2495 116.583C39.0024 110.831 39.0024 101.503 33.2495 95.7505C27.4966 89.9976 18.1694 89.9976 12.4165 95.7505C6.66364 101.503 6.66364 110.831 12.4165 116.583Z" stroke="#F4BB00" stroke-width="11" stroke-linecap="round" stroke-linejoin="round"/>
<path d="M65 37C59.9609 37 55.1282 39.0281 51.565 42.6382C48.0018 46.2483 46 51.1446 46 56.25C46 62.795 49.23 68.5425 54.1429 72.035V78.25C54.1429 78.9793 54.4288 79.6788 54.9379 80.1945C55.4469 80.7103 56.1373 81 56.8571 81H73.1429C73.8627 81 74.5531 80.7103 75.0621 80.1945C75.5712 79.6788 75.8571 78.9793 75.8571 78.25V72.035C80.77 68.5425 84 62.795 84 56.25C84 51.1446 81.9982 46.2483 78.435 42.6382C74.8718 39.0281 70.0391 37 65 37ZM56.8571 89.25C56.8571 89.9793 57.1431 90.6788 57.6521 91.1945C58.1612 91.7103 58.8516 92 59.5714 92H70.4286C71.1484 92 71.8388 91.7103 72.3479 91.1945C72.8569 90.6788 73.1429 89.9793 73.1429 89.25V86.5H56.8571V89.25Z" fill="#F4BB00"/>
<path d="M177.632 25.16V32.648H164.096V38.6H174.08V45.752H164.096V59H154.688V25.16H177.632ZM191.002 25.16V59H181.594V25.16H191.002ZM209.128 59.336C205.192 59.336 201.96 58.408 199.432 56.552C196.904 54.664 195.544 51.976 195.352 48.488H205.384C205.48 49.672 205.832 50.536 206.44 51.08C207.048 51.624 207.832 51.896 208.792 51.896C209.656 51.896 210.36 51.688 210.904 51.272C211.48 50.824 211.768 50.216 211.768 49.448C211.768 48.456 211.304 47.688 210.376 47.144C209.448 46.6 207.944 45.992 205.864 45.32C203.656 44.584 201.864 43.88 200.488 43.208C199.144 42.504 197.96 41.496 196.936 40.184C195.944 38.84 195.448 37.096 195.448 34.952C195.448 32.776 195.992 30.92 197.08 29.384C198.168 27.816 199.672 26.632 201.592 25.832C203.512 25.032 205.688 24.632 208.12 24.632C212.056 24.632 215.192 25.56 217.528 27.416C219.896 29.24 221.16 31.816 221.32 35.144H211.096C211.064 34.12 210.744 33.352 210.136 32.84C209.56 32.328 208.808 32.072 207.88 32.072C207.176 32.072 206.6 32.28 206.152 32.696C205.704 33.112 205.48 33.704 205.48 34.472C205.48 35.112 205.72 35.672 206.2 36.152C206.712 36.6 207.336 37 208.072 37.352C208.808 37.672 209.896 38.088 211.336 38.6C213.48 39.336 215.24 40.072 216.616 40.808C218.024 41.512 219.224 42.52 220.216 43.832C221.24 45.112 221.752 46.744 221.752 48.728C221.752 50.744 221.24 52.552 220.216 54.152C219.224 55.752 217.768 57.016 215.848 57.944C213.96 58.872 211.72 59.336 209.128 59.336ZM235.534 25.16V59H226.126V25.16H235.534ZM280.395 25.16V59H270.987V40.328L264.603 59H256.731L250.299 40.184V59H240.891V25.16H252.267L260.763 47.144L269.067 25.16H280.395ZM307.159 53.48H295.159L293.335 59H283.447L295.783 25.16H306.631L318.919 59H308.983L307.159 53.48ZM304.807 46.28L301.159 35.336L297.559 46.28H304.807ZM347.473 25.16V32.648H338.449V59H329.041V32.648H320.113V25.16H347.473ZM360.362 32.696V38.216H371.162V45.368H360.362V51.464H372.602V59H350.954V25.16H372.602V32.696H360.362Z" fill="#0080FF"/>
<path d="M172.616 83.96C172.616 85.3253 172.296 86.5733 171.656 87.704C171.037 88.8133 170.088 89.7093 168.808 90.392C167.549 91.0533 166.003 91.384 164.168 91.384H161.064V99H154.792V76.44H164.168C165.981 76.44 167.517 76.76 168.776 77.4C170.056 78.04 171.016 78.9253 171.656 80.056C172.296 81.1867 172.616 82.488 172.616 83.96ZM163.56 86.392C165.331 86.392 166.216 85.5813 166.216 83.96C166.216 82.3173 165.331 81.496 163.56 81.496H161.064V86.392H163.56ZM183.488 99.224C181.696 99.224 180.085 98.8507 178.656 98.104C177.248 97.3573 176.138 96.2907 175.328 94.904C174.517 93.5173 174.112 91.8853 174.112 90.008C174.112 88.152 174.517 86.5307 175.328 85.144C176.16 83.7573 177.28 82.6907 178.688 81.944C180.117 81.1973 181.728 80.824 183.52 80.824C185.312 80.824 186.912 81.1973 188.32 81.944C189.749 82.6907 190.869 83.7573 191.68 85.144C192.512 86.5307 192.928 88.152 192.928 90.008C192.928 91.864 192.512 93.496 191.68 94.904C190.869 96.2907 189.749 97.3573 188.32 98.104C186.89 98.8507 185.28 99.224 183.488 99.224ZM183.488 93.784C184.362 93.784 185.088 93.464 185.664 92.824C186.261 92.1627 186.56 91.224 186.56 90.008C186.56 88.792 186.261 87.864 185.664 87.224C185.088 86.584 184.373 86.264 183.52 86.264C182.666 86.264 181.952 86.584 181.376 87.224C180.8 87.864 180.512 88.792 180.512 90.008C180.512 91.2453 180.789 92.184 181.344 92.824C181.898 93.464 182.613 93.784 183.488 93.784ZM201.752 84.216C202.456 83.192 203.309 82.3813 204.312 81.784C205.314 81.1867 206.392 80.888 207.544 80.888V87.576H205.784C204.418 87.576 203.405 87.8427 202.744 88.376C202.082 88.9093 201.752 89.8373 201.752 91.16V99H195.48V81.048H201.752V84.216ZM220.384 93.656V99H217.664C213.077 99 210.784 96.728 210.784 92.184V86.264H208.576V81.048H210.784V76.696H217.088V81.048H220.352V86.264H217.088V92.28C217.088 92.7707 217.195 93.1227 217.408 93.336C217.643 93.5493 218.027 93.656 218.56 93.656H220.384ZM222.237 90.008C222.237 88.152 222.567 86.5307 223.229 85.144C223.911 83.7573 224.829 82.6907 225.981 81.944C227.154 81.1973 228.455 80.824 229.885 80.824C231.122 80.824 232.189 81.0693 233.085 81.56C233.981 82.0507 234.674 82.712 235.165 83.544V81.048H241.437V99H235.165V96.504C234.674 97.336 233.97 97.9973 233.053 98.488C232.157 98.9787 231.101 99.224 229.885 99.224C228.455 99.224 227.154 98.8507 225.981 98.104C224.829 97.3573 223.911 96.2907 223.229 94.904C222.567 93.496 222.237 91.864 222.237 90.008ZM235.165 90.008C235.165 88.856 234.845 87.9493 234.205 87.288C233.586 86.6267 232.818 86.296 231.901 86.296C230.962 86.296 230.183 86.6267 229.565 87.288C228.946 87.928 228.637 88.8347 228.637 90.008C228.637 91.16 228.946 92.0773 229.565 92.76C230.183 93.4213 230.962 93.752 231.901 93.752C232.818 93.752 233.586 93.4213 234.205 92.76C234.845 92.0987 235.165 91.1813 235.165 90.008ZM251.283 75.32V99H245.011V75.32H251.283ZM275.38 83.864C275.017 83.2667 274.516 82.808 273.876 82.488C273.257 82.168 272.521 82.008 271.668 82.008C270.089 82.008 268.841 82.52 267.924 83.544C267.028 84.568 266.58 85.944 266.58 87.672C266.58 89.6133 267.06 91.096 268.02 92.12C269.001 93.1227 270.42 93.624 272.276 93.624C274.473 93.624 276.041 92.632 276.98 90.648H270.676V86.136H282.388V92.216C281.897 93.4107 281.172 94.5307 280.212 95.576C279.273 96.6213 278.078 97.4853 276.628 98.168C275.177 98.8293 273.524 99.16 271.668 99.16C269.406 99.16 267.401 98.68 265.652 97.72C263.924 96.7387 262.58 95.384 261.62 93.656C260.681 91.9067 260.212 89.912 260.212 87.672C260.212 85.4533 260.681 83.48 261.62 81.752C262.58 80.0027 263.924 78.648 265.652 77.688C267.38 76.7067 269.374 76.216 271.636 76.216C274.473 76.216 276.82 76.8987 278.676 78.264C280.532 79.6293 281.684 81.496 282.132 83.864H275.38ZM303.566 81.048V99H297.262V96.44C296.729 97.2507 295.993 97.912 295.054 98.424C294.116 98.9147 293.038 99.16 291.822 99.16C289.732 99.16 288.078 98.4773 286.862 97.112C285.668 95.7253 285.07 93.848 285.07 91.48V81.048H291.31V90.68C291.31 91.704 291.577 92.5147 292.11 93.112C292.665 93.688 293.39 93.976 294.286 93.976C295.204 93.976 295.929 93.688 296.462 93.112C296.996 92.5147 297.262 91.704 297.262 90.68V81.048H303.566ZM313.408 84.216C314.112 83.192 314.965 82.3813 315.968 81.784C316.97 81.1867 318.048 80.888 319.2 80.888V87.576H317.44C316.074 87.576 315.061 87.8427 314.4 88.376C313.738 88.9093 313.408 89.8373 313.408 91.16V99H307.136V81.048H313.408V84.216ZM339.816 81.048V99H333.512V96.44C332.979 97.2507 332.243 97.912 331.304 98.424C330.366 98.9147 329.288 99.16 328.072 99.16C325.982 99.16 324.328 98.4773 323.112 97.112C321.918 95.7253 321.32 93.848 321.32 91.48V81.048H327.56V90.68C327.56 91.704 327.827 92.5147 328.36 93.112C328.915 93.688 329.64 93.976 330.536 93.976C331.454 93.976 332.179 93.688 332.712 93.112C333.246 92.5147 333.512 91.704 333.512 90.68V81.048H339.816Z" fill="#F4BB00"/>
</svg>
